HIERARCHY
ROOT Hips
{
	OFFSET 0.000000 0.000000 0.000000
	CHANNELS 6 Xposition Yposition Zposition Zrotation Yrotation Xrotation 
	JOINT LeftUpLeg_virtual
	{
		OFFSET 0.000000 0.000000 0.000000
		CHANNELS 3 Zrotation Yrotation Xrotation
		JOINT LeftUpLeg
		{
			OFFSET 10.205400 -3.823500 0.155100
			CHANNELS 3 Zrotation Yrotation Xrotation
			JOINT LeftLeg
			{
				OFFSET 0.708757 -12.982077 0.567790
				CHANNELS 3 Zrotation Yrotation Xrotation
				JOINT LeftFoot
				{
					OFFSET -0.708756 -10.717838 -2.184338
					CHANNELS 3 Zrotation Yrotation Xrotation
					JOINT LeftToeBase
					{
						OFFSET 0.108149 -7.191104 7.560241
						CHANNELS 3 Zrotation Yrotation Xrotation
						End Site
						{
							OFFSET 0.000000 0.000000 0.000000
						}
					}
				}
			}
		}
	}
	JOINT RightUpLeg_virtual
	{
		OFFSET 0.000000 0.000000 0.000000
		CHANNELS 3 Zrotation Yrotation Xrotation
		JOINT RightUpLeg
		{
			OFFSET -10.205400 -3.823500 0.005500
			CHANNELS 3 Zrotation Yrotation Xrotation
			JOINT RightLeg
			{
				OFFSET -0.708756 -12.982134 0.610632
				CHANNELS 3 Zrotation Yrotation Xrotation
				JOINT RightFoot
				{
					OFFSET 0.708754 -10.717769 -1.945823
					CHANNELS 3 Zrotation Yrotation Xrotation
					JOINT RightToeBase
					{
						OFFSET -0.108140 -7.191069 7.372968
						CHANNELS 3 Zrotation Yrotation Xrotation
						End Site
						{
							OFFSET 0.000000 0.000000 0.000000
						}
					}
				}
			}
		}
	}
	JOINT Spine_virtual
	{
		OFFSET 0.000000 0.000000 0.000000
		CHANNELS 3 Zrotation Yrotation Xrotation
		JOINT Spine
		{
			OFFSET 0.000000 6.876099 0.125700
			CHANNELS 3 Zrotation Yrotation Xrotation
			JOINT Spine1
			{
				OFFSET 0.000000 8.022060 0.146608
				CHANNELS 3 Zrotation Yrotation Xrotation
				JOINT Spine2
				{
					OFFSET 0.000000 9.168068 0.167552
					CHANNELS 3 Zrotation Yrotation Xrotation
					JOINT Neck_virtual
					{
						OFFSET 0.000000 0.000000 0.000000
						CHANNELS 3 Zrotation Yrotation Xrotation
						JOINT Neck
						{
							OFFSET 0.000000 10.314075 0.188496
							CHANNELS 3 Zrotation Yrotation Xrotation
							JOINT Head
							{
								OFFSET 0.000000 7.643700 -2.377400
								CHANNELS 3 Zrotation Yrotation Xrotation
								End Site
								{
									OFFSET 0.000000 0.000000 0.000000
								}
							}
						}
					}
					JOINT LeftShoulder_virtual
					{
						OFFSET 0.000000 0.000000 0.000000
						CHANNELS 3 Zrotation Yrotation Xrotation
						JOINT LeftShoulder
						{
							OFFSET 4.392200 8.824978 0.174984
							CHANNELS 3 Zrotation Yrotation Xrotation
							JOINT LeftArm
							{
								OFFSET 8.771219 -2.981674 -0.026999
								CHANNELS 3 Zrotation Yrotation Xrotation
								JOINT LeftForeArm
								{
									OFFSET 8.512804 0.000000 -0.000000
									CHANNELS 3 Zrotation Yrotation Xrotation
									JOINT LeftHand
									{
										OFFSET 18.484802 0.000000 -0.000000
										CHANNELS 3 Zrotation Yrotation Xrotation
										End Site
										{
											OFFSET 0.000000 0.000000 0.000000
										}
									}
								}
							}
						}
					}
					JOINT RightShoulder_virtual
					{
						OFFSET 0.000000 0.000000 0.000000
						CHANNELS 3 Zrotation Yrotation Xrotation
						JOINT RightShoulder
						{
							OFFSET -4.392200 8.824993 0.141379
							CHANNELS 3 Zrotation Yrotation Xrotation
							JOINT RightArm
							{
								OFFSET -8.771282 -2.981682 -0.094208
								CHANNELS 3 Zrotation Yrotation Xrotation
								JOINT RightForeArm
								{
									OFFSET -8.494598 0.000000 0.000000
									CHANNELS 3 Zrotation Yrotation Xrotation
									JOINT RightHand
									{
										OFFSET -18.483803 0.000000 0.000001
										CHANNELS 3 Zrotation Yrotation Xrotation
										End Site
										{
											OFFSET 0.000000 0.000000 0.000000
										}
									}
								}
							}
						}
					}
				}
			}
		}
	}
}
MOTION
Frames: 8
Frame Time: 0.033333
7.770066 36.562016 4.223720 179.864576 5.307147 -179.859098 -3.415407 -2.141446 10.202384 0.104474 -2.672197 -18.869081 7.224003 6.814131 17.815799 -6.612062 3.326274 9.422256 0.000000 0.000000 0.000000 1.987913 -0.175807 8.538030 1.546129 -4.152385 -6.553199 -7.373900 0.303792 11.955466 6.567847 7.610362 8.721661 0.000000 0.000000 0.000000 0.409510 0.913174 -2.073896 -2.636624 2.388100 -6.577930 1.322182 -4.195807 3.949509 -0.026861 -0.002634 0.036658 0.937254 -2.530486 5.566574 -0.671271 0.538004 2.943313 0.000000 0.000000 0.000000 2.064109 -1.445639 2.929444 0.550698 -6.020603 -2.963620 -13.626967 32.826244 -26.174390 -6.798394 -32.752471 -1.731411 0.000000 0.000000 0.000000 -0.844387 -0.808913 2.699676 12.344867 -2.827115 -6.770998 23.084480 -34.983631 -32.253892 0.806094 32.781370 -4.329236 0.000000 0.000000 0.000000 
7.877971 36.571487 4.297973 179.838362 5.063804 -179.710883 -3.285778 -2.313091 10.103794 0.158699 -2.730317 -18.830446 7.303257 6.642881 17.856739 -6.599275 3.423107 9.692993 0.000000 0.000000 0.000000 2.342397 -0.241703 8.591513 1.279235 -4.137888 -6.422779 -7.303006 -0.061759 12.216774 6.604630 7.466254 8.722970 0.000000 0.000000 0.000000 0.474603 0.901638 -2.192816 -2.710022 2.341973 -6.465811 1.316711 -4.202058 3.946763 -0.032322 -0.008826 -0.005242 0.979239 -2.512955 5.671155 -0.674253 0.470852 2.886740 0.000000 0.000000 0.000000 2.080517 -1.446730 3.054526 0.647872 -6.173492 -2.984092 -13.858127 32.782377 -26.777895 -6.925914 -32.746427 -1.612467 0.000000 0.000000 0.000000 -0.816343 -0.785043 2.827885 12.411995 -2.749735 -6.800751 23.112633 -35.045059 -32.370780 0.918601 32.877901 -4.264077 0.000000 0.000000 0.000000 
8.014321 36.585667 4.422065 179.912947 4.714489 -179.704012 -3.130361 -2.199168 9.817068 0.412687 -2.769188 -18.735538 7.225029 6.315112 17.565339 -6.836670 3.383160 10.063697 0.000000 0.000000 0.000000 2.485633 -0.197490 8.494604 1.603459 -4.503044 -6.418710 -7.162422 -0.130016 12.253943 6.185959 7.405692 8.697051 0.000000 0.000000 0.000000 0.617986 0.975202 -2.247854 -2.780069 2.258324 -6.248430 1.405493 -4.209440 4.130450 0.024389 0.016494 0.070495 0.953739 -2.434660 5.565020 -0.698441 0.296143 2.964400 0.000000 0.000000 0.000000 2.074341 -1.483411 2.960509 0.775514 -6.382168 -3.030483 -14.424753 32.715063 -27.146273 -6.896561 -32.836052 -1.564392 0.000000 0.000000 0.000000 -0.873901 -0.847494 2.673146 12.590715 -2.683074 -6.610678 23.337380 -35.094851 -32.413100 0.882739 33.099554 -4.281006 0.000000 0.000000 0.000000 
8.147778 36.599892 4.584706 179.933575 4.188313 -179.752192 -3.024325 -2.109487 9.468602 0.743442 -2.889747 -18.652632 7.071644 6.183911 17.278418 -7.144242 3.276885 10.533827 0.000000 0.000000 0.000000 2.580647 -0.171632 8.433340 1.774295 -4.574288 -6.467336 -7.096540 -0.681965 12.395115 5.813300 7.359828 8.697506 0.000000 0.000000 0.000000 0.735761 1.064238 -2.170109 -2.904757 2.139320 -5.941040 1.494044 -4.241165 4.087014 0.021513 0.003541 0.028888 1.040739 -2.549934 5.688108 -0.676065 0.089386 3.069918 0.000000 0.000000 0.000000 2.176223 -1.556427 3.097779 0.873753 -6.529095 -3.172543 -15.529412 32.807666 -27.795854 -6.931992 -33.189566 -1.451130 0.000000 0.000000 0.000000 -0.798622 -0.938471 2.781803 12.817890 -2.652034 -6.495328 23.467832 -35.241546 -32.130169 0.851653 33.509755 -4.284109 0.000000 0.000000 0.000000 
8.259246 36.611298 4.806199 179.885818 3.812813 -179.769923 -2.976514 -1.810416 9.105722 1.065065 -2.926326 -18.778109 6.900523 6.088543 17.006536 -7.363428 3.055249 11.098362 0.000000 0.000000 0.000000 2.697706 -0.044100 8.331414 1.918077 -4.429157 -6.604663 -6.940221 -1.221899 12.536474 5.463926 7.161861 8.729296 0.000000 0.000000 0.000000 0.849752 1.094050 -2.061788 -3.037371 2.038645 -5.713195 1.560121 -4.280293 4.162945 0.008206 -0.019629 0.039087 1.153514 -2.632888 5.721104 -0.600030 -0.161097 3.258225 0.000000 0.000000 0.000000 2.317979 -1.538510 3.105496 0.845704 -6.560894 -3.145350 -17.198565 33.016626 -28.493944 -6.927304 -33.780620 -1.438144 0.000000 0.000000 0.000000 -0.661319 -0.909365 2.824781 13.077137 -2.452052 -6.307999 23.693708 -35.412017 -31.706746 0.826979 33.988510 -4.239041 0.000000 0.000000 0.000000 
8.331673 36.619030 5.092549 179.823458 3.565136 -179.777887 -2.846998 -1.679371 8.898870 1.200809 -3.207999 -19.036808 6.834837 6.394735 16.160144 -7.478757 2.921514 12.268896 0.000000 0.000000 0.000000 2.716746 0.125955 8.147370 2.027952 -4.233323 -6.849018 -6.982509 -1.812443 12.667144 5.218363 7.255505 8.638567 0.000000 0.000000 0.000000 0.963057 1.129020 -1.849902 -3.149233 2.031374 -5.518014 1.629422 -4.265333 4.204808 0.037805 0.004219 0.017256 1.196453 -2.580920 5.838041 -0.581436 -0.542772 3.491893 0.000000 0.000000 0.000000 2.376193 -1.539333 3.222431 0.648863 -6.620402 -3.218774 -19.362060 33.154032 -29.024745 -6.902521 -34.565388 -1.304902 0.000000 0.000000 0.000000 -0.620344 -0.919872 2.883797 13.424585 -2.272176 -5.930732 23.733254 -35.696577 -30.850670 0.749395 34.464472 -4.247249 0.000000 0.000000 0.000000 
8.353384 36.625175 5.422367 179.793802 3.325108 -179.760074 -2.788283 -1.623031 8.655598 1.308818 -3.255767 -19.549301 6.692467 6.312037 15.869267 -7.284396 2.740157 13.334828 0.000000 0.000000 0.000000 2.761956 0.078227 7.883384 2.022007 -3.854695 -7.179460 -6.978654 -2.308252 12.631053 5.016056 7.334800 8.612750 0.000000 0.000000 0.000000 1.153229 1.056319 -1.626211 -3.216481 2.054662 -5.385440 1.636911 -4.223504 4.277751 0.081536 0.025367 0.025683 1.256857 -2.556876 5.922705 -0.521089 -0.929957 3.698448 0.000000 0.000000 0.000000 2.446025 -1.583945 3.261820 0.247822 -6.767774 -3.258876 -21.890319 33.191636 -29.141361 -6.894588 -35.509395 -1.238319 0.000000 0.000000 0.000000 -0.580304 -0.945333 2.893212 13.808587 -2.080269 -5.514080 23.842691 -36.072070 -29.785567 0.623831 34.958636 -4.225135 0.000000 0.000000 0.000000 
8.315457 36.629627 5.776214 -179.892348 3.206310 -179.915543 -2.565521 -1.600430 8.491658 1.434231 -2.887595 -20.111251 6.505782 6.314140 16.198410 -7.145484 2.380738 13.602093 0.000000 0.000000 0.000000 3.096314 -0.237099 7.711971 1.974088 -3.581851 -7.394968 -6.947116 -2.248849 12.459418 4.745022 7.491547 8.634514 0.000000 0.000000 0.000000 1.530306 0.852733 -1.300882 -3.121629 1.984033 -5.131615 1.769806 -4.263292 4.342844 -0.003283 -0.035021 0.071329 1.270146 -2.398396 5.910641 -0.428232 -1.285086 4.010305 0.000000 0.000000 0.000000 2.464505 -1.472619 3.231839 -0.331544 -6.848704 -3.168618 -24.684365 33.165022 -28.731723 -6.992095 -36.577770 -1.061516 0.000000 0.000000 0.000000 -0.590791 -0.868941 2.967369 14.296177 -1.759654 -5.214027 24.039833 -36.404659 -28.547887 0.577716 35.425794 -4.163762 0.000000 0.000000 0.000000 
